<svg width="16" height="16" viewBox="0 0 16 16" fill="none" xmlns="http://www.w3.org/2000/svg">
<path d="M13.445 7.7275C13.4772 7.66885 13.4973 7.60434 13.5041 7.53779C13.5109 7.47123 13.5043 7.40398 13.4847 7.34002C13.465 7.27606 13.4327 7.2167 13.3897 7.16545C13.3467 7.11419 13.2939 7.07209 13.2343 7.04164C13.1747 7.01118 13.1097 6.99299 13.0429 6.98814C12.9762 6.9833 12.9092 6.99189 12.8458 7.01342C12.7825 7.03495 12.7241 7.06897 12.6741 7.11347C12.6242 7.15798 12.5837 7.21205 12.555 7.2725C12.0927 8.16292 11.372 8.89277 10.4875 9.36625L9.34747 6.80062C9.69089 6.54324 9.95353 6.19301 10.1044 5.79124C10.2553 5.38947 10.2881 4.95293 10.1991 4.53312C10.11 4.1133 9.90267 3.72772 9.60162 3.42185C9.30057 3.11599 8.91832 2.90261 8.49997 2.80687V1.5C8.49997 1.36739 8.4473 1.24021 8.35353 1.14645C8.25976 1.05268 8.13258 1 7.99997 1C7.86737 1 7.74019 1.05268 7.64642 1.14645C7.55265 1.24021 7.49997 1.36739 7.49997 1.5V2.80687C7.08162 2.90261 6.69938 3.11599 6.39833 3.42185C6.09728 3.72772 5.88998 4.1133 5.80089 4.53312C5.7118 4.95293 5.74464 5.38947 5.89553 5.79124C6.04641 6.19301 6.30906 6.54324 6.65247 6.80062L3.5431 13.7969C3.51606 13.8569 3.50116 13.9217 3.49924 13.9876C3.49732 14.0534 3.50842 14.1189 3.53191 14.1805C3.5554 14.242 3.59081 14.2983 3.63612 14.3461C3.68142 14.3939 3.73572 14.4323 3.7959 14.459C3.85607 14.4858 3.92095 14.5004 3.98678 14.502C4.05262 14.5036 4.11813 14.4922 4.17954 14.4684C4.24096 14.4446 4.29707 14.409 4.34466 14.3634C4.39225 14.3179 4.43038 14.2634 4.45685 14.2031L6.0281 10.6681C6.66205 10.8888 7.3287 11.001 7.99997 11C8.67161 10.9993 9.33865 10.8893 9.97497 10.6744L11.5431 14.2031C11.5974 14.3237 11.6972 14.4178 11.8207 14.465C11.9442 14.5121 12.0813 14.5085 12.2022 14.4547C12.323 14.401 12.4176 14.3017 12.4653 14.1784C12.513 14.0551 12.51 13.9179 12.4568 13.7969L10.8943 10.2812C11.987 9.71262 12.8777 8.82084 13.445 7.7275ZM7.99997 10C7.46913 10.0007 6.94161 9.91626 6.43747 9.75L7.56747 7.2075C7.85387 7.26409 8.14858 7.26409 8.43497 7.2075L9.56872 9.7575C9.0613 9.91814 8.53222 9.99993 7.99997 10Z" fill="white"/>
</svg>
